<svg xmlns="http://www.w3.org/2000/svg" xmlns:svg="http://www.w3.org/2000/svg" id="svg5" width="11" height="11" version="1.1" viewBox="0 0 2.91 2.91"><g id="layer2"><rect style="fill:#fff;stroke-width:.264583" id="rect264" width="2.91" height="2.91" x="0" y="0"/></g><g id="layer1"><rect style="fill:none;stroke-width:.264583" id="rect377" width="1.852" height="1.587" x=".265" y=".265"/><rect style="fill:none;stroke-width:.264583" id="rect579" width=".265" height=".265" x="1.323" y="1.323"/><rect style="fill:#000;stroke-width:.264583" id="rect606" width="1.852" height=".265" x=".529" y=".529"/><rect style="fill:#000;stroke-width:.264583" id="rect608" width=".265" height="1.852" x=".529" y=".529"/><rect style="fill:#000;stroke-width:.264583" id="rect610" width="1.852" height=".265" x=".529" y="2.117"/><rect style="fill:#000;stroke-width:.264583" id="rect612" width=".265" height="1.852" x="2.117" y=".529"/><rect style="fill:#000;stroke-width:.264583" id="rect976" width=".265" height=".794" x=".265" y="1.852"/><rect style="fill:#000;stroke-width:.264583" id="rect978" width=".794" height=".265" x="1.058" y="2.381"/><rect style="fill:#000;stroke-width:.264583" id="rect980" width=".265" height=".265" x="2.117" y="2.381"/><rect style="fill:#000;stroke-width:.264583" id="rect982" width=".265" height=".529" x="2.381" y="1.852"/><rect style="fill:#000;stroke-width:.264583" id="rect984" width=".265" height=".265" x="2.381" y="1.323"/><rect style="fill:#000;stroke-width:.264583" id="rect986" width=".265" height=".794" x="2.381" y=".265"/><rect style="fill:#000;stroke-width:.264583" id="rect988" width=".265" height=".265" x="2.117" y=".265"/><rect style="fill:#000;stroke-width:.264583" id="rect990" width=".265" height=".794" x="1.058" y="1.058"/><rect style="fill:#000;stroke-width:.264583" id="rect992" width=".529" height=".265" x="1.323" y="1.587"/><rect style="fill:#000;stroke-width:.264583" id="rect994" width=".265" height=".529" x="1.587" y="1.058"/><rect style="fill:#000;stroke-width:.264583" id="rect996" width=".529" height=".265" x="1.323" y=".265"/><rect style="fill:#000;stroke-width:.264583" id="rect998" width=".265" height=".265" x=".529" y=".265"/></g></svg>